<?xml version="1.0" standalone="no"?><!DOCTYPE svg PUBLIC "-//W3C//DTD SVG 1.1//EN" "http://www.w3.org/Graphics/SVG/1.1/DTD/svg11.dtd"><svg t="1734502486138" class="icon" viewBox="0 0 1024 1024" version="1.1" xmlns="http://www.w3.org/2000/svg" p-id="9207" xmlns:xlink="http://www.w3.org/1999/xlink" width="256" height="256"><path d="M682.193 365.433s119.319-15.049 126.194 29.458c6.876 44.51 58.258 255.634-92.985 316.691-37.709 24.033-39.852 18.412-39.852 18.412l3.319-77.332s72.471-26.104 76.381-51.554c3.911-25.45 0-176.759 0-176.759h-79.7l6.643-58.916z" fill="#FFFFFF" p-id="9208"></path><path d="M677.288 733.228c-3.113 0-4.021-1.749-4.225-2.286l-0.194-0.513 3.42-79.666 1.681-0.605c19.743-7.115 71.643-29.869 74.651-49.455 3.554-23.105 0.527-153.563 0.032-173.69h-80.081l7.209-63.962 2.081-0.261c0.194-0.026 19.86-2.471 43.372-2.471 36.729 0 81.425 5.928 85.787 34.164 0.523 3.38 1.319 7.822 2.245 12.966 5.881 32.749 16.827 93.705 9.01 155.107-9.676 75.975-45.222 126.914-105.646 151.402-20.085 12.789-33.321 19.27-39.342 19.27z m4.168-78.68l-3.145 73.255c3.11-0.516 12.133-3.471 35.66-18.466l0.435-0.224c58.644-23.675 93.159-73.21 102.584-147.229 7.716-60.593-3.137-121.027-8.968-153.493-0.931-5.179-1.734-9.65-2.266-13.093-3.985-25.799-52.16-29.653-80.522-29.653-18.765 0-35.032 1.579-40.632 2.191l-6.07 53.852h79.314l0.066 2.594c0.16 6.188 3.876 151.838-0.03 177.23-3.803 24.768-65.13 48.807-76.426 53.036z" fill="#FF9900" p-id="9209"></path><path d="M290.825 303.674s-10.634 455.6-3.683 500.813c24.723 30.402 105.148 19.711 180.438 22.095 75.292 2.384 187.805 3.685 187.805 3.685s17.481-8.826 22.094-22.096c4.615-13.271 7.366-69.967 7.366-69.967V277.896l-394.02 25.778z" fill="#FFFFFF" p-id="9210"></path><path d="M656.006 832.936l-0.65-0.009c-1.124-0.013-113.4-1.325-187.857-3.684-8.199-0.26-17.226-0.387-27.597-0.387-9.153 0-18.363 0.097-27.268 0.19-8.904 0.091-17.313 0.181-25.675 0.181h-0.01c-51.315-0.002-86.257-3.857-101.871-23.061l-0.458-0.561-0.109-0.715c-6.908-44.929 3.218-482.667 3.652-501.279l0.057-2.437 2.431-0.158 396.858-25.962v463.149c-0.116 2.46-2.826 57.364-7.516 70.842-4.909 14.124-22.655 23.218-23.408 23.597l-0.579 0.294z m-216.104-9.404c10.428 0 19.508 0.128 27.766 0.389 71.375 2.261 177.548 3.561 187.07 3.674 2.912-1.59 16.469-9.484 20.229-20.299 4.437-12.76 7.191-68.656 7.221-69.22l-0.003-457.335-388.753 25.432c-0.821 35.869-10.131 450.638-3.762 497.189 14.539 17.085 48.054 20.54 97.277 20.541h0.01c8.334 0 16.731-0.089 25.62-0.183 8.922-0.092 18.144-0.188 27.325-0.188z" fill="#FF9900" p-id="9211"></path><path d="M310.987 319.287s-9.529 413.897-3.3 454.975c22.154 27.62 94.22 17.907 161.687 20.071 67.466 2.166 168.285 3.347 168.285 3.347s15.667-8.017 19.801-20.072c4.134-12.057 6.6-63.56 6.6-63.56V295.871l-353.073 23.416z" fill="#FFAA01" p-id="9212"></path><path d="M435.087 310.849l-92.204 7.044s-7.78 389.218-2.694 427.848c14.033 20.147 52.593 19.17 94.899 18.668l-0.001-453.56zM539.791 302.85v463.652c37.61 0.822 69.824 1.257 69.824 1.257s12.788-7.539 16.166-18.878c3.376-11.336 5.388-59.77 5.388-59.77v-393.24l-91.378 6.979z" fill="#FEBA33" p-id="9213"></path><path d="M251.932 277.896s6.451-61.462 77.331-77.332c56.071-45.491 71.65-36.008 103.108 3.683 18.127 1.184 36.824 18.413 36.824 18.413s59.036-58.226 106.79-3.683c40.357 2.704 100.659 1.972 103.109 47.873 29.114 1.467 54.984 41.356 29.46 73.647-25.525 32.294-68.456 6.417-73.648-18.412 0.73 15.162 8.155 36.192 0 44.19-8.158 7.996-72.656 19.785-55.236-40.507-12.205-11.418-18.412-18.414-18.412-18.414s-29.216 35.156-66.285 11.046c-35.586 20.327-78.841 34.477-99.426 0-23.545 21.806-90.398 68.745-143.615-18.411-2.858-13.098 0-22.093 0-22.093z" fill="#FFFFFF" p-id="9214"></path><path d="M608.931 376.202c-9.361 0-22.114-2.117-29.699-12.201-6.482-8.622-7.593-21.125-3.308-37.184-7.094-6.693-11.984-11.715-14.679-14.57-5.666 5.655-20.221 17.931-39.768 17.932-9.019 0-17.955-2.657-26.593-7.901-24.03 13.495-44.798 20.334-61.75 20.336-16.514 0-29.366-6.429-38.26-19.127-12.474 10.92-39.157 30.562-69.653 30.562-29.317 0-54.931-17.604-76.13-52.322l-0.291-0.478-0.12-0.548c-2.735-12.536-0.546-21.601-0.021-23.469 0.299-2.397 2.479-17.153 12.511-33.769 9.823-16.274 29.339-37.402 66.602-45.971 26.478-21.405 44.091-30.545 58.817-30.545 18.603 0 32.055 14.701 47.5 34.11 14.916 1.615 29.48 12.538 35.033 17.141 7.362-6.538 31.542-25.871 60.005-25.871 18.146 0 34.436 7.878 48.442 23.419 2.962 0.192 6.022 0.366 9.156 0.547 38.514 2.214 90.951 5.224 95.466 47.5 14.733 1.959 28.825 12.945 35.717 28.138 7.711 17.002 5.252 35.455-6.742 50.631-8.459 10.704-19.527 16.361-32.008 16.361-14.355 0-29.127-7.687-38.459-18.6 1.73 11.243 2.731 22.254-3.465 28.329-4.242 4.161-16.939 7.547-28.303 7.55z m-47.754-73.939l2.569 2.885c0.063 0.069 6.273 7.036 18.198 18.191l1.49 1.395-0.567 1.959c-4.303 14.892-3.737 26.099 1.685 33.306 5.934 7.891 16.532 9.546 24.378 9.546 11.746 0 21.638-3.675 23.647-5.645 4.485-4.401 2.664-15.695 0.9-26.617-0.82-5.073-1.667-10.318-1.895-15.036l6.582-0.841c3.046 14.568 21.226 30.863 40.994 30.862 10.371 0 19.634-4.784 26.786-13.833 10.396-13.152 12.545-29.1 5.901-43.753-6.345-13.986-19.571-23.834-32.919-24.507l-2.995-0.151-0.159-2.996c-2.088-39.069-50.516-41.852-89.432-44.088-3.634-0.209-7.177-0.413-10.576-0.64l-1.373-0.092-0.909-1.035c-12.891-14.723-27.813-22.187-44.355-22.187-30.759 0-57.331 25.787-57.593 26.048l-2.257 2.219-2.333-2.142c-0.178-0.165-18.07-16.448-34.789-17.54l-1.474-0.097-0.917-1.158c-17.197-21.695-28.595-32.712-43.175-32.712-13.184 0-29.702 8.836-55.229 29.548l-0.607 0.493-0.763 0.17c-28.359 6.35-49.546 20.762-62.969 42.835-10.06 16.542-11.763 31.452-11.78 31.602l-0.036 0.333-0.103 0.323c-0.021 0.07-2.455 8.163-0.034 19.833 19.846 32.284 43.445 48.651 70.151 48.651 30.804 0 57.86-21.979 68.064-31.429l3.015-2.791 2.106 3.526c7.739 12.961 19.099 19.261 34.729 19.26 16.187 0 36.438-6.879 60.189-20.444l1.761-1.006 1.704 1.107c8.069 5.249 16.377 7.91 24.688 7.909 21.677-0.001 37.071-18.114 37.225-18.298l2.477-2.963z" fill="#FF9900" p-id="9215"></path><path d="M485.483 446.336a27.155 21.291 0 1 0 54.31 0 27.155 21.291 0 1 0-54.31 0Z" fill="#FBC656" p-id="9216"></path><path d="M367.617 408.394a16.974 16.653 0 1 0 33.948 0 16.974 16.653 0 1 0-33.948 0Z" fill="#FBC656" p-id="9217"></path><path d="M338.858 600.424a14.38 12.984 0 1 0 28.76 0 14.38 12.984 0 1 0-28.76 0Z" fill="#FBC656" p-id="9218"></path><path d="M512.635 570.76a13.578 16.678 0 1 0 27.156 0 13.578 16.678 0 1 0-27.156 0Z" fill="#FBC656" p-id="9219"></path><path d="M585.479 676.223a14.884 12.89 0 1 0 29.768 0 14.884 12.89 0 1 0-29.768 0Z" fill="#FBC656" p-id="9220"></path><path d="M600.367 503.572a15.401 11.983 0 1 0 30.802 0 15.401 11.983 0 1 0-30.802 0Z" fill="#FBC656" p-id="9221"></path><path d="M421.538 709.264a11.982 9.986 0 1 0 23.964 0 11.982 9.986 0 1 0-23.964 0Z" fill="#FBC656" p-id="9222"></path></svg>